<mxfile host="app.diagrams.net" agent="Mozilla/5.0 (Macintosh; Intel Mac OS X 10_15_7) AppleWebKit/537.36 (KHTML, like Gecko) Chrome/128.0.0.0 Safari/537.36" version="24.7.14">
  <diagram name="PÃ¡gina-1" id="v82OkqRPXLxD3jQSN9xI">
    <mxGraphModel dx="609" dy="860" grid="0" gridSize="10" guides="1" tooltips="1" connect="1" arrows="1" fold="1" page="1" pageScale="1" pageWidth="1654" pageHeight="1169" math="0" shadow="0">
      <root>
        <mxCell id="0" />
        <mxCell id="1" parent="0" />
        <mxCell id="BahSj1_r1cL9ZHhUsxGS-1" value="&lt;font style=&quot;font-size: 8px;&quot;&gt;Vaccine&lt;/font&gt;" style="swimlane;fontStyle=1;align=center;verticalAlign=top;childLayout=stackLayout;horizontal=1;startSize=26;horizontalStack=0;resizeParent=1;resizeParentMax=0;resizeLast=0;collapsible=1;marginBottom=0;whiteSpace=wrap;html=1;fillColor=#dae8fc;strokeColor=default;" vertex="1" parent="1">
          <mxGeometry x="30" y="90" width="212" height="214" as="geometry" />
        </mxCell>
        <mxCell id="BahSj1_r1cL9ZHhUsxGS-2" value="&lt;p style=&quot;font-size: 8px;&quot;&gt;&lt;font style=&quot;font-size: 8px;&quot;&gt;- _idVaccine: String&lt;/font&gt;&lt;/p&gt;&lt;p style=&quot;font-size: 8px;&quot;&gt;&lt;font style=&quot;font-size: 8px;&quot;&gt;- &lt;u&gt;_existingIds&lt;/u&gt;: List&amp;lt;String&amp;gt;&lt;/font&gt;&lt;/p&gt;&lt;p style=&quot;font-size: 8px;&quot;&gt;&lt;font style=&quot;font-size: 8px;&quot;&gt;- _name: String&lt;/font&gt;&lt;/p&gt;&lt;p style=&quot;font-size: 8px;&quot;&gt;&lt;font style=&quot;font-size: 8px;&quot;&gt;- _numApplications: int&lt;/font&gt;&lt;/p&gt;" style="text;strokeColor=default;fillColor=#dae8fc;align=left;verticalAlign=top;spacingLeft=4;spacingRight=4;overflow=hidden;rotatable=0;points=[[0,0.5],[1,0.5]];portConstraint=eastwest;whiteSpace=wrap;html=1;" vertex="1" parent="BahSj1_r1cL9ZHhUsxGS-1">
          <mxGeometry y="26" width="212" height="84" as="geometry" />
        </mxCell>
        <mxCell id="BahSj1_r1cL9ZHhUsxGS-4" value="&lt;p style=&quot;font-size: 8px;&quot;&gt;&lt;font style=&quot;font-size: 8px;&quot;&gt;+ determineVaccineEffect(animal: Animal): HealthStatus&lt;/font&gt;&lt;/p&gt;&lt;p style=&quot;font-size: 8px;&quot;&gt;&lt;font style=&quot;font-size: 8px;&quot;&gt;- calculateVaccineDamage(animal: Animal): int&lt;/font&gt;&lt;/p&gt;&lt;p style=&quot;font-size: 8px;&quot;&gt;&lt;font style=&quot;font-size: 8px;&quot;&gt;- biggestSpeciesName(): Species&lt;/font&gt;&lt;/p&gt;&lt;p style=&quot;font-size: 8px;&quot;&gt;&lt;font style=&quot;font-size: 8px;&quot;&gt;+ toString(): String&lt;/font&gt;&lt;/p&gt;&lt;p style=&quot;font-size: 8px;&quot;&gt;&lt;font style=&quot;font-size: 8px;&quot;&gt;- suitableSpeciesToString(): String&lt;/font&gt;&lt;/p&gt;" style="text;strokeColor=default;fillColor=#dae8fc;align=left;verticalAlign=top;spacingLeft=4;spacingRight=4;overflow=hidden;rotatable=0;points=[[0,0.5],[1,0.5]];portConstraint=eastwest;whiteSpace=wrap;html=1;" vertex="1" parent="BahSj1_r1cL9ZHhUsxGS-1">
          <mxGeometry y="110" width="212" height="104" as="geometry" />
        </mxCell>
        <mxCell id="BahSj1_r1cL9ZHhUsxGS-10" value="" style="endArrow=block;endFill=1;html=1;edgeStyle=orthogonalEdgeStyle;align=left;verticalAlign=top;rounded=0;exitX=0.489;exitY=0.997;exitDx=0;exitDy=0;exitPerimeter=0;entryX=0.5;entryY=0;entryDx=0;entryDy=0;" edge="1" parent="1" source="BahSj1_r1cL9ZHhUsxGS-4" target="BahSj1_r1cL9ZHhUsxGS-6">
          <mxGeometry x="-1" relative="1" as="geometry">
            <mxPoint x="150" y="580" as="sourcePoint" />
            <mxPoint x="280" y="610" as="targetPoint" />
            <mxPoint as="offset" />
          </mxGeometry>
        </mxCell>
        <mxCell id="BahSj1_r1cL9ZHhUsxGS-13" value="&lt;font style=&quot;font-size: 8px;&quot;&gt;VaccinationRecord&lt;/font&gt;" style="swimlane;fontStyle=1;align=center;verticalAlign=top;childLayout=stackLayout;horizontal=1;startSize=26;horizontalStack=0;resizeParent=1;resizeParentMax=0;resizeLast=0;collapsible=1;marginBottom=0;whiteSpace=wrap;html=1;fillColor=#dae8fc;strokeColor=#000000;" vertex="1" parent="1">
          <mxGeometry x="298" y="258" width="117" height="79" as="geometry" />
        </mxCell>
        <mxCell id="BahSj1_r1cL9ZHhUsxGS-14" value="&lt;font style=&quot;font-size: 9px;&quot;&gt;- _damage: HealthStatus&lt;/font&gt;" style="text;strokeColor=default;fillColor=#dae8fc;align=left;verticalAlign=top;spacingLeft=4;spacingRight=4;overflow=hidden;rotatable=0;points=[[0,0.5],[1,0.5]];portConstraint=eastwest;whiteSpace=wrap;html=1;" vertex="1" parent="BahSj1_r1cL9ZHhUsxGS-13">
          <mxGeometry y="26" width="117" height="27" as="geometry" />
        </mxCell>
        <mxCell id="BahSj1_r1cL9ZHhUsxGS-16" value="&lt;font style=&quot;font-size: 8px;&quot;&gt;+ toString(): String&lt;/font&gt;" style="text;strokeColor=default;fillColor=#dae8fc;align=left;verticalAlign=top;spacingLeft=4;spacingRight=4;overflow=hidden;rotatable=0;points=[[0,0.5],[1,0.5]];portConstraint=eastwest;whiteSpace=wrap;html=1;" vertex="1" parent="BahSj1_r1cL9ZHhUsxGS-13">
          <mxGeometry y="53" width="117" height="26" as="geometry" />
        </mxCell>
        <mxCell id="BahSj1_r1cL9ZHhUsxGS-19" value="" style="endArrow=block;endFill=1;html=1;edgeStyle=orthogonalEdgeStyle;align=left;verticalAlign=top;rounded=0;exitX=0;exitY=0.5;exitDx=0;exitDy=0;entryX=1;entryY=0.306;entryDx=0;entryDy=0;entryPerimeter=0;" edge="1" parent="1" source="BahSj1_r1cL9ZHhUsxGS-14" target="BahSj1_r1cL9ZHhUsxGS-4">
          <mxGeometry x="-1" relative="1" as="geometry">
            <mxPoint x="290" y="490" as="sourcePoint" />
            <mxPoint x="450" y="490" as="targetPoint" />
          </mxGeometry>
        </mxCell>
        <mxCell id="BahSj1_r1cL9ZHhUsxGS-21" value="&lt;b&gt;&lt;font style=&quot;font-size: 8px;&quot;&gt;Animal&lt;/font&gt;&lt;/b&gt;" style="html=1;whiteSpace=wrap;fillColor=#dae8fc;strokeColor=default;" vertex="1" parent="1">
          <mxGeometry x="403" y="215" width="57" height="30" as="geometry" />
        </mxCell>
        <mxCell id="BahSj1_r1cL9ZHhUsxGS-22" value="" style="endArrow=block;endFill=1;html=1;edgeStyle=orthogonalEdgeStyle;align=left;verticalAlign=top;rounded=0;entryX=0.628;entryY=1.028;entryDx=0;entryDy=0;entryPerimeter=0;exitX=1.003;exitY=0.383;exitDx=0;exitDy=0;exitPerimeter=0;" edge="1" parent="1" source="BahSj1_r1cL9ZHhUsxGS-14" target="BahSj1_r1cL9ZHhUsxGS-21">
          <mxGeometry x="-1" relative="1" as="geometry">
            <mxPoint x="430" y="294" as="sourcePoint" />
            <mxPoint x="710" y="500" as="targetPoint" />
            <Array as="points">
              <mxPoint x="430" y="294" />
              <mxPoint x="507" y="294" />
            </Array>
          </mxGeometry>
        </mxCell>
        <mxCell id="BahSj1_r1cL9ZHhUsxGS-25" value="&lt;font style=&quot;font-size: 8px;&quot;&gt;Veterinary&lt;/font&gt;" style="swimlane;fontStyle=1;align=center;verticalAlign=top;childLayout=stackLayout;horizontal=1;startSize=26;horizontalStack=0;resizeParent=1;resizeParentMax=0;resizeLast=0;collapsible=1;marginBottom=0;whiteSpace=wrap;html=1;fillColor=#dae8fc;strokeColor=default;" vertex="1" parent="1">
          <mxGeometry x="375" y="364" width="260" height="132" as="geometry" />
        </mxCell>
        <mxCell id="BahSj1_r1cL9ZHhUsxGS-28" value="&lt;p style=&quot;font-size: 8px;&quot;&gt;&lt;font style=&quot;font-size: 8px;&quot;&gt;+ calculateSatisfactionLevel(): int&lt;/font&gt;&lt;/p&gt;&lt;p style=&quot;font-size: 8px;&quot;&gt;&lt;font style=&quot;font-size: 8px;&quot;&gt;+ toString(): String&lt;/font&gt;&lt;/p&gt;&lt;p style=&quot;font-size: 8px;&quot;&gt;&lt;font style=&quot;font-size: 8px;&quot;&gt;+ addSpecies(species: Species): void&lt;/font&gt;&lt;/p&gt;&lt;p style=&quot;font-size: 8px;&quot;&gt;&lt;font style=&quot;font-size: 8px;&quot;&gt;+ removeResponsibility(idSpecies: String): void&lt;/font&gt;&lt;/p&gt;&lt;p style=&quot;font-size: 8px;&quot;&gt;&lt;font style=&quot;font-size: 8px;&quot;&gt;+ vaccinate(vaccine: Vaccine, animal: Animal): VaccinationRecord&lt;/font&gt;&lt;/p&gt;" style="text;strokeColor=default;fillColor=#dae8fc;align=left;verticalAlign=top;spacingLeft=4;spacingRight=4;overflow=hidden;rotatable=0;points=[[0,0.5],[1,0.5]];portConstraint=eastwest;whiteSpace=wrap;html=1;" vertex="1" parent="BahSj1_r1cL9ZHhUsxGS-25">
          <mxGeometry y="26" width="260" height="106" as="geometry" />
        </mxCell>
        <mxCell id="BahSj1_r1cL9ZHhUsxGS-30" value="" style="endArrow=block;endFill=1;html=1;edgeStyle=orthogonalEdgeStyle;align=left;verticalAlign=top;rounded=0;entryX=-0.003;entryY=0.351;entryDx=0;entryDy=0;entryPerimeter=0;exitX=0.377;exitY=1.01;exitDx=0;exitDy=0;exitPerimeter=0;" edge="1" parent="1" source="BahSj1_r1cL9ZHhUsxGS-16" target="BahSj1_r1cL9ZHhUsxGS-28">
          <mxGeometry x="-1" relative="1" as="geometry">
            <mxPoint x="370" y="544.75" as="sourcePoint" />
            <mxPoint x="530" y="544.75" as="targetPoint" />
          </mxGeometry>
        </mxCell>
        <mxCell id="BahSj1_r1cL9ZHhUsxGS-32" value="&lt;font style=&quot;font-size: 8px;&quot;&gt;Keeper&lt;/font&gt;" style="swimlane;fontStyle=1;align=center;verticalAlign=top;childLayout=stackLayout;horizontal=1;startSize=20;horizontalStack=0;resizeParent=1;resizeParentMax=0;resizeLast=0;collapsible=1;marginBottom=0;whiteSpace=wrap;html=1;fillColor=#dae8fc;strokeColor=default;" vertex="1" parent="1">
          <mxGeometry x="655" y="363" width="192" height="134" as="geometry">
            <mxRectangle x="805" y="359" width="61" height="26" as="alternateBounds" />
          </mxGeometry>
        </mxCell>
        <mxCell id="BahSj1_r1cL9ZHhUsxGS-35" value="&lt;p style=&quot;font-size: 8px;&quot;&gt;&lt;font style=&quot;font-size: 8px;&quot;&gt;+ calculateSatisfactionLevel(): int&lt;/font&gt;&lt;/p&gt;&lt;p style=&quot;font-size: 8px;&quot;&gt;&lt;font style=&quot;font-size: 8px;&quot;&gt;- workEffort(): int&lt;/font&gt;&lt;/p&gt;&lt;p style=&quot;font-size: 8px;&quot;&gt;&lt;font style=&quot;font-size: 8px;&quot;&gt;+ toString(): String&lt;/font&gt;&lt;/p&gt;&lt;p style=&quot;font-size: 8px;&quot;&gt;&lt;font style=&quot;font-size: 8px;&quot;&gt;+ addHabitat(habitat: Habitat): void&lt;/font&gt;&lt;/p&gt;&lt;p style=&quot;font-size: 8px;&quot;&gt;&lt;font style=&quot;font-size: 8px;&quot;&gt;+ removeResponsibility(idHabitat: String): void&lt;/font&gt;&lt;/p&gt;" style="text;strokeColor=default;fillColor=#dae8fc;align=left;verticalAlign=top;spacingLeft=4;spacingRight=4;overflow=hidden;rotatable=0;points=[[0,0.5],[1,0.5]];portConstraint=eastwest;whiteSpace=wrap;html=1;" vertex="1" parent="BahSj1_r1cL9ZHhUsxGS-32">
          <mxGeometry y="20" width="192" height="114" as="geometry" />
        </mxCell>
        <mxCell id="BahSj1_r1cL9ZHhUsxGS-36" value="&lt;div style=&quot;font-size: 8px;&quot;&gt;&lt;span style=&quot;font-weight: normal;&quot;&gt;&lt;font style=&quot;font-size: 8px;&quot;&gt;&amp;lt;&amp;lt;abstract&amp;gt;&amp;gt;&lt;/font&gt;&lt;/span&gt;&lt;/div&gt;&lt;font style=&quot;font-size: 8px;&quot;&gt;Employee&lt;/font&gt;" style="swimlane;fontStyle=1;align=center;verticalAlign=top;childLayout=stackLayout;horizontal=1;startSize=40;horizontalStack=0;resizeParent=1;resizeParentMax=0;resizeLast=0;collapsible=1;marginBottom=0;whiteSpace=wrap;html=1;fillColor=#dae8fc;strokeColor=default;" vertex="1" parent="1">
          <mxGeometry x="540" y="110" width="250" height="189" as="geometry">
            <mxRectangle x="827" y="110" width="110" height="40" as="alternateBounds" />
          </mxGeometry>
        </mxCell>
        <mxCell id="BahSj1_r1cL9ZHhUsxGS-37" value="&lt;p style=&quot;font-size: 8px;&quot;&gt;&lt;font style=&quot;font-size: 8px;&quot;&gt;- _idEmployee: String&lt;/font&gt;&lt;/p&gt;&lt;p style=&quot;font-size: 8px;&quot;&gt;&lt;font style=&quot;font-size: 8px;&quot;&gt;- &lt;u&gt;_existinï»¿gIds&lt;/u&gt;: List&amp;lt;String&amp;gt;&lt;/font&gt;&lt;/p&gt;&lt;p style=&quot;font-size: 8px;&quot;&gt;&lt;font style=&quot;font-size: 8px;&quot;&gt;- _name: String&lt;/font&gt;&lt;/p&gt;&lt;p style=&quot;font-size: 8px;&quot;&gt;&lt;font style=&quot;font-size: 8px;&quot;&gt;- _employeeType: String&lt;/font&gt;&lt;/p&gt;" style="text;strokeColor=default;fillColor=#dae8fc;align=left;verticalAlign=top;spacingLeft=4;spacingRight=4;overflow=hidden;rotatable=0;points=[[0,0.5],[1,0.5]];portConstraint=eastwest;whiteSpace=wrap;html=1;" vertex="1" parent="BahSj1_r1cL9ZHhUsxGS-36">
          <mxGeometry y="40" width="250" height="80" as="geometry" />
        </mxCell>
        <mxCell id="BahSj1_r1cL9ZHhUsxGS-39" value="&lt;p style=&quot;font-size: 8px;&quot;&gt;&lt;font style=&quot;font-size: 8px;&quot;&gt;+ &amp;lt;&amp;lt;abstract&amp;gt;&amp;gt; toString(): String&lt;/font&gt;&lt;/p&gt;&lt;p style=&quot;font-size: 8px;&quot;&gt;&lt;font style=&quot;font-size: 8px;&quot;&gt;+ &amp;lt;&amp;lt;abstract&amp;gt;&amp;gt; removeResponsibility(responsibilityId: String): void&lt;/font&gt;&lt;/p&gt;&lt;p style=&quot;font-size: 8px;&quot;&gt;&lt;font style=&quot;font-size: 8px;&quot;&gt;+ &amp;lt;&amp;lt;abstract&amp;gt;&amp;gt; calculateSatisfactionLevel(): int&lt;/font&gt;&lt;/p&gt;" style="text;strokeColor=default;fillColor=#dae8fc;align=left;verticalAlign=top;spacingLeft=4;spacingRight=4;overflow=hidden;rotatable=0;points=[[0,0.5],[1,0.5]];portConstraint=eastwest;whiteSpace=wrap;html=1;" vertex="1" parent="BahSj1_r1cL9ZHhUsxGS-36">
          <mxGeometry y="120" width="250" height="69" as="geometry" />
        </mxCell>
        <mxCell id="BahSj1_r1cL9ZHhUsxGS-41" value="" style="endArrow=block;endSize=16;endFill=0;html=1;rounded=0;entryX=0.307;entryY=1.008;entryDx=0;entryDy=0;entryPerimeter=0;exitX=0.937;exitY=-0.015;exitDx=0;exitDy=0;exitPerimeter=0;" edge="1" parent="1" source="BahSj1_r1cL9ZHhUsxGS-25" target="BahSj1_r1cL9ZHhUsxGS-39">
          <mxGeometry width="160" relative="1" as="geometry">
            <mxPoint x="660" y="420" as="sourcePoint" />
            <mxPoint x="820" y="420" as="targetPoint" />
          </mxGeometry>
        </mxCell>
        <mxCell id="BahSj1_r1cL9ZHhUsxGS-43" value="" style="endArrow=block;endSize=16;endFill=0;html=1;rounded=0;entryX=0.67;entryY=0.994;entryDx=0;entryDy=0;entryPerimeter=0;exitX=0.224;exitY=-0.011;exitDx=0;exitDy=0;exitPerimeter=0;" edge="1" parent="1" source="BahSj1_r1cL9ZHhUsxGS-32" target="BahSj1_r1cL9ZHhUsxGS-39">
          <mxGeometry width="160" relative="1" as="geometry">
            <mxPoint x="890" y="420" as="sourcePoint" />
            <mxPoint x="1050" y="420" as="targetPoint" />
            <Array as="points" />
          </mxGeometry>
        </mxCell>
        <mxCell id="BahSj1_r1cL9ZHhUsxGS-44" value="&lt;font style=&quot;font-size: 8px;&quot;&gt;Animal&lt;/font&gt;" style="swimlane;fontStyle=1;align=center;verticalAlign=top;childLayout=stackLayout;horizontal=1;startSize=26;horizontalStack=0;resizeParent=1;resizeParentMax=0;resizeLast=0;collapsible=1;marginBottom=0;whiteSpace=wrap;html=1;fillColor=#dae8fc;strokeColor=#000000;" vertex="1" parent="1">
          <mxGeometry x="230" y="562" width="330" height="223" as="geometry" />
        </mxCell>
        <mxCell id="BahSj1_r1cL9ZHhUsxGS-45" value="&lt;p style=&quot;font-size: 8px;&quot;&gt;&lt;font style=&quot;font-size: 8px;&quot;&gt;- _idAnimal: String&lt;/font&gt;&lt;/p&gt;&lt;p style=&quot;font-size: 8px;&quot;&gt;&lt;font style=&quot;font-size: 8px;&quot;&gt;- &lt;u&gt;_existingIds&lt;/u&gt;: List&amp;lt;String&amp;gt;&lt;/font&gt;&lt;/p&gt;&lt;p style=&quot;font-size: 8px;&quot;&gt;&lt;font style=&quot;font-size: 8px;&quot;&gt;- _name: String&lt;/font&gt;&lt;/p&gt;&lt;p style=&quot;font-size: 8px;&quot;&gt;&lt;font style=&quot;font-size: 8px;&quot;&gt;- _healthHistory: String&lt;/font&gt;&lt;/p&gt;" style="text;strokeColor=default;fillColor=#dae8fc;align=left;verticalAlign=top;spacingLeft=4;spacingRight=4;overflow=hidden;rotatable=0;points=[[0,0.5],[1,0.5]];portConstraint=eastwest;whiteSpace=wrap;html=1;" vertex="1" parent="BahSj1_r1cL9ZHhUsxGS-44">
          <mxGeometry y="26" width="330" height="80" as="geometry" />
        </mxCell>
        <mxCell id="BahSj1_r1cL9ZHhUsxGS-47" value="&lt;p style=&quot;font-size: 8px;&quot;&gt;&lt;font style=&quot;font-size: 8px;&quot;&gt;+ calculateSatisfactionLevel(): int&lt;/font&gt;&lt;/p&gt;&lt;p style=&quot;font-size: 8px;&quot;&gt;&lt;font style=&quot;font-size: 8px;&quot;&gt;+ updateHealthHistory(healthStatus: HealthStatus): void&lt;/font&gt;&lt;/p&gt;&lt;p style=&quot;font-size: 8px;&quot;&gt;&lt;font style=&quot;font-size: 8px;&quot;&gt;+ toString(): String&lt;/font&gt;&lt;/p&gt;&lt;p style=&quot;font-size: 8px;&quot;&gt;&lt;font style=&quot;font-size: 8px;&quot;&gt;+ changeHabitat(newHabitat: Habitat): void&lt;/font&gt;&lt;/p&gt;&lt;p style=&quot;font-size: 8px;&quot;&gt;&lt;font style=&quot;font-size: 8px;&quot;&gt;+ listVaccinationRecord(hotel: Hotel): String&lt;/font&gt;&lt;/p&gt;&lt;p style=&quot;font-size: 8px;&quot;&gt;&lt;font style=&quot;font-size: 8px;&quot;&gt;+ registerNewSpecies(idSpecies: String, name: String): void&lt;/font&gt;&lt;/p&gt;" style="text;strokeColor=default;fillColor=#dae8fc;align=left;verticalAlign=top;spacingLeft=4;spacingRight=4;overflow=hidden;rotatable=0;points=[[0,0.5],[1,0.5]];portConstraint=eastwest;whiteSpace=wrap;html=1;" vertex="1" parent="BahSj1_r1cL9ZHhUsxGS-44">
          <mxGeometry y="106" width="330" height="117" as="geometry" />
        </mxCell>
        <mxCell id="BahSj1_r1cL9ZHhUsxGS-48" value="&lt;font style=&quot;font-size: 8px;&quot;&gt;Habitat&lt;/font&gt;" style="swimlane;fontStyle=1;align=center;verticalAlign=top;childLayout=stackLayout;horizontal=1;startSize=26;horizontalStack=0;resizeParent=1;resizeParentMax=0;resizeLast=0;collapsible=1;marginBottom=0;whiteSpace=wrap;html=1;fillColor=#dae8fc;strokeColor=default;" vertex="1" parent="1">
          <mxGeometry x="630" y="562" width="380" height="339" as="geometry" />
        </mxCell>
        <mxCell id="BahSj1_r1cL9ZHhUsxGS-49" value="&lt;p style=&quot;font-size: 8px;&quot;&gt;&lt;font style=&quot;font-size: 8px;&quot;&gt;- _idHabitat: String&lt;/font&gt;&lt;/p&gt;&lt;p style=&quot;font-size: 8px;&quot;&gt;&lt;font style=&quot;font-size: 8px;&quot;&gt;- &lt;u&gt;_existingIds&lt;/u&gt;: List&amp;lt;String&amp;gt;&lt;/font&gt;&lt;/p&gt;&lt;p style=&quot;font-size: 8px;&quot;&gt;&lt;font style=&quot;font-size: 8px;&quot;&gt;- _name: String&lt;/font&gt;&lt;/p&gt;&lt;p style=&quot;font-size: 8px;&quot;&gt;&lt;font style=&quot;font-size: 8px;&quot;&gt;- _area: int&lt;/font&gt;&lt;/p&gt;" style="text;strokeColor=default;fillColor=#dae8fc;align=left;verticalAlign=top;spacingLeft=4;spacingRight=4;overflow=hidden;rotatable=0;points=[[0,0.5],[1,0.5]];portConstraint=eastwest;whiteSpace=wrap;html=1;" vertex="1" parent="BahSj1_r1cL9ZHhUsxGS-48">
          <mxGeometry y="26" width="380" height="84" as="geometry" />
        </mxCell>
        <mxCell id="BahSj1_r1cL9ZHhUsxGS-51" value="&lt;p style=&quot;font-size: 8px;&quot;&gt;&lt;font style=&quot;font-size: 8px;&quot;&gt;+ getNumAnimalsSameSpecies(species: Species): int&lt;/font&gt;&lt;/p&gt;&lt;p style=&quot;font-size: 8px;&quot;&gt;&lt;font style=&quot;font-size: 8px;&quot;&gt;+ identifyInfluence(species: Species): Influence&lt;/font&gt;&lt;/p&gt;&lt;p style=&quot;font-size: 8px;&quot;&gt;&lt;font style=&quot;font-size: 8px;&quot;&gt;+ cleaningEffort(): int&lt;/font&gt;&lt;/p&gt;&lt;p style=&quot;font-size: 8px;&quot;&gt;&lt;font style=&quot;font-size: 8px;&quot;&gt;+ addAnimal(animal: Animal): void&lt;/font&gt;&lt;/p&gt;&lt;p style=&quot;font-size: 8px;&quot;&gt;&lt;font style=&quot;font-size: 8px;&quot;&gt;+ removeAnimal(animal: Animal): void&lt;/font&gt;&lt;/p&gt;&lt;p style=&quot;font-size: 8px;&quot;&gt;&lt;font style=&quot;font-size: 8px;&quot;&gt;+ identifyAnimal(idAnimal:String): Animal&lt;/font&gt;&lt;/p&gt;&lt;p style=&quot;font-size: 8px;&quot;&gt;&lt;font style=&quot;font-size: 8px;&quot;&gt;+ toString: String&lt;/font&gt;&lt;/p&gt;&lt;p style=&quot;font-size: 8px;&quot;&gt;&lt;font style=&quot;font-size: 8px;&quot;&gt;- listTrees(currentSeason: Season): String&lt;/font&gt;&lt;/p&gt;&lt;p style=&quot;font-size: 8px;&quot;&gt;&lt;font style=&quot;font-size: 8px;&quot;&gt;+ changeHabitatInfluence(species: Species, newInfluence: Influence): void&lt;/font&gt;&lt;/p&gt;&lt;p style=&quot;font-size: 8px;&quot;&gt;&lt;font style=&quot;font-size: 8px;&quot;&gt;+ plantTree(idTree: String, name: String, age: int, baseCleaningDifficulty: int, treeType: String): void&lt;/font&gt;&lt;/p&gt;&lt;p style=&quot;font-size: 8px;&quot;&gt;&lt;font style=&quot;font-size: 8px;&quot;&gt;+ listAnimals(): String&lt;/font&gt;&lt;/p&gt;&lt;p style=&quot;font-size: 8px;&quot;&gt;&lt;font style=&quot;font-size: 8px;&quot;&gt;+ equals(otherHabitat: Habitat): boolean&lt;/font&gt;&lt;/p&gt;" style="text;strokeColor=default;fillColor=#dae8fc;align=left;verticalAlign=top;spacingLeft=4;spacingRight=4;overflow=hidden;rotatable=0;points=[[0,0.5],[1,0.5]];portConstraint=eastwest;whiteSpace=wrap;html=1;" vertex="1" parent="BahSj1_r1cL9ZHhUsxGS-48">
          <mxGeometry y="110" width="380" height="229" as="geometry" />
        </mxCell>
        <mxCell id="BahSj1_r1cL9ZHhUsxGS-58" value="&lt;font style=&quot;font-size: 8px;&quot;&gt;&lt;span style=&quot;font-weight: normal;&quot;&gt;&lt;em&gt;&amp;lt;&amp;lt;enumeration&amp;gt;&amp;gt;&lt;/em&gt;&lt;em style=&quot;&quot;&gt;&lt;br class=&quot;softbreak&quot;&gt;&lt;/em&gt;&lt;/span&gt;HealthStatus&lt;/font&gt;" style="swimlane;fontStyle=1;align=center;verticalAlign=top;childLayout=stackLayout;horizontal=1;startSize=40;horizontalStack=0;resizeParent=1;resizeParentMax=0;resizeLast=0;collapsible=1;marginBottom=0;whiteSpace=wrap;html=1;fillColor=#dae8fc;strokeColor=default;" vertex="1" parent="1">
          <mxGeometry x="248.5" y="802" width="293.5" height="150" as="geometry" />
        </mxCell>
        <mxCell id="BahSj1_r1cL9ZHhUsxGS-59" value="&lt;p style=&quot;font-size: 8px;&quot;&gt;&lt;font style=&quot;font-size: 8px;&quot;&gt;NORMAL&lt;/font&gt;&lt;/p&gt;&lt;p style=&quot;font-size: 8px;&quot;&gt;&lt;span style=&quot;background-color: initial;&quot;&gt;&lt;font style=&quot;font-size: 8px;&quot;&gt;CONFUSION&lt;/font&gt;&lt;/span&gt;&lt;/p&gt;&lt;p style=&quot;font-size: 8px;&quot;&gt;&lt;font style=&quot;font-size: 8px;&quot;&gt;ACCIDENT&lt;/font&gt;&lt;/p&gt;&lt;p style=&quot;font-size: 8px;&quot;&gt;&lt;font style=&quot;font-size: 8px;&quot;&gt;ERROR&lt;/font&gt;&lt;/p&gt;" style="text;strokeColor=default;fillColor=#dae8fc;align=left;verticalAlign=top;spacingLeft=4;spacingRight=4;overflow=hidden;rotatable=0;points=[[0,0.5],[1,0.5]];portConstraint=eastwest;whiteSpace=wrap;html=1;" vertex="1" parent="BahSj1_r1cL9ZHhUsxGS-58">
          <mxGeometry y="40" width="293.5" height="82" as="geometry" />
        </mxCell>
        <mxCell id="BahSj1_r1cL9ZHhUsxGS-61" value="&lt;font style=&quot;font-size: 8px;&quot;&gt;+ &lt;u&gt;determineHealthStatus(damage: int, correctSpecies: boolean)&lt;/u&gt;: HealthStatus&lt;/font&gt;" style="text;strokeColor=default;fillColor=#dae8fc;align=left;verticalAlign=top;spacingLeft=4;spacingRight=4;overflow=hidden;rotatable=0;points=[[0,0.5],[1,0.5]];portConstraint=eastwest;whiteSpace=wrap;html=1;" vertex="1" parent="BahSj1_r1cL9ZHhUsxGS-58">
          <mxGeometry y="122" width="293.5" height="28" as="geometry" />
        </mxCell>
        <mxCell id="BahSj1_r1cL9ZHhUsxGS-62" value="" style="group;" vertex="1" connectable="0" parent="1">
          <mxGeometry x="105" y="361" width="164" height="176" as="geometry" />
        </mxCell>
        <mxCell id="BahSj1_r1cL9ZHhUsxGS-6" value="&lt;font style=&quot;font-size: 8px;&quot;&gt;Species&lt;/font&gt;" style="swimlane;fontStyle=1;align=center;verticalAlign=top;childLayout=stackLayout;horizontal=1;startSize=26;horizontalStack=0;resizeParent=1;resizeParentMax=0;resizeLast=0;collapsible=1;marginBottom=0;whiteSpace=wrap;html=1;fillColor=#dae8fc;strokeColor=default;" vertex="1" parent="BahSj1_r1cL9ZHhUsxGS-62">
          <mxGeometry y="31" width="164" height="137" as="geometry" />
        </mxCell>
        <mxCell id="BahSj1_r1cL9ZHhUsxGS-7" value="&lt;p style=&quot;font-size: 8px;&quot;&gt;&lt;font style=&quot;font-size: 8px;&quot;&gt;- _idSpecies: String&lt;/font&gt;&lt;/p&gt;&lt;p style=&quot;font-size: 8px;&quot;&gt;&lt;font style=&quot;font-size: 8px;&quot;&gt;- &lt;u&gt;_existingIds&lt;/u&gt;: List&amp;lt;String&amp;gt;&lt;/font&gt;&lt;/p&gt;&lt;p style=&quot;font-size: 8px;&quot;&gt;&lt;font style=&quot;font-size: 8px;&quot;&gt;- _name: String&lt;/font&gt;&lt;/p&gt;&lt;p style=&quot;font-size: 8px;&quot;&gt;&lt;font style=&quot;font-size: 8px;&quot;&gt;- &lt;u&gt;_existingSpecies&lt;/u&gt;: List &amp;lt;String&amp;gt;&lt;/font&gt;&lt;/p&gt;" style="text;strokeColor=default;fillColor=#dae8fc;align=left;verticalAlign=top;spacingLeft=4;spacingRight=4;overflow=hidden;rotatable=0;points=[[0,0.5],[1,0.5]];portConstraint=eastwest;whiteSpace=wrap;html=1;" vertex="1" parent="BahSj1_r1cL9ZHhUsxGS-6">
          <mxGeometry y="26" width="164" height="85" as="geometry" />
        </mxCell>
        <mxCell id="BahSj1_r1cL9ZHhUsxGS-9" value="&lt;font style=&quot;font-size: 8px;&quot;&gt;+ equals(otherSpecies: Species): boolean&lt;/font&gt;" style="text;strokeColor=default;fillColor=#dae8fc;align=left;verticalAlign=top;spacingLeft=4;spacingRight=4;overflow=hidden;rotatable=0;points=[[0,0.5],[1,0.5]];portConstraint=eastwest;whiteSpace=wrap;html=1;" vertex="1" parent="BahSj1_r1cL9ZHhUsxGS-6">
          <mxGeometry y="111" width="164" height="26" as="geometry" />
        </mxCell>
        <mxCell id="BahSj1_r1cL9ZHhUsxGS-12" value="&lt;font style=&quot;font-size: 8px;&quot;&gt;1..*&lt;/font&gt;" style="text;html=1;align=center;verticalAlign=middle;resizable=0;points=[];autosize=1;strokeColor=none;fillColor=none;" vertex="1" parent="BahSj1_r1cL9ZHhUsxGS-62">
          <mxGeometry x="89" width="30" height="26" as="geometry" />
        </mxCell>
        <mxCell id="BahSj1_r1cL9ZHhUsxGS-63" value="" style="endArrow=block;startArrow=block;endFill=1;startFill=1;html=1;rounded=0;exitX=1;exitY=0.5;exitDx=0;exitDy=0;entryX=0.002;entryY=0.47;entryDx=0;entryDy=0;entryPerimeter=0;" edge="1" parent="1" source="BahSj1_r1cL9ZHhUsxGS-45" target="BahSj1_r1cL9ZHhUsxGS-49">
          <mxGeometry width="160" relative="1" as="geometry">
            <mxPoint x="560" y="657" as="sourcePoint" />
            <mxPoint x="720" y="657" as="targetPoint" />
          </mxGeometry>
        </mxCell>
        <mxCell id="BahSj1_r1cL9ZHhUsxGS-64" value="&lt;font style=&quot;font-size: 8px;&quot;&gt;1&lt;/font&gt;" style="text;html=1;align=center;verticalAlign=middle;resizable=0;points=[];autosize=1;strokeColor=none;fillColor=none;" vertex="1" parent="1">
          <mxGeometry x="611" y="602" width="22" height="26" as="geometry" />
        </mxCell>
        <mxCell id="BahSj1_r1cL9ZHhUsxGS-65" value="&lt;font style=&quot;font-size: 8px;&quot;&gt;0..*&lt;/font&gt;" style="text;html=1;align=center;verticalAlign=middle;resizable=0;points=[];autosize=1;strokeColor=none;fillColor=none;" vertex="1" parent="1">
          <mxGeometry x="560" y="604" width="30" height="26" as="geometry" />
        </mxCell>
        <mxCell id="BahSj1_r1cL9ZHhUsxGS-66" value="" style="endArrow=block;startArrow=block;endFill=1;startFill=1;html=1;rounded=0;entryX=0.542;entryY=1.005;entryDx=0;entryDy=0;entryPerimeter=0;exitX=0.338;exitY=-0.003;exitDx=0;exitDy=0;exitPerimeter=0;" edge="1" parent="1" source="BahSj1_r1cL9ZHhUsxGS-48" target="BahSj1_r1cL9ZHhUsxGS-35">
          <mxGeometry width="160" relative="1" as="geometry">
            <mxPoint x="655" y="541" as="sourcePoint" />
            <mxPoint x="815" y="541" as="targetPoint" />
          </mxGeometry>
        </mxCell>
        <mxCell id="BahSj1_r1cL9ZHhUsxGS-67" value="&lt;font style=&quot;font-size: 8px;&quot;&gt;0..*&lt;/font&gt;" style="text;html=1;align=center;verticalAlign=middle;resizable=0;points=[];autosize=1;strokeColor=none;fillColor=none;" vertex="1" parent="1">
          <mxGeometry x="760" y="536" width="30" height="26" as="geometry" />
        </mxCell>
        <mxCell id="BahSj1_r1cL9ZHhUsxGS-68" value="&lt;font style=&quot;font-size: 8px;&quot;&gt;0..*&lt;/font&gt;" style="text;html=1;align=center;verticalAlign=middle;resizable=0;points=[];autosize=1;strokeColor=none;fillColor=none;" vertex="1" parent="1">
          <mxGeometry x="760" y="498" width="30" height="26" as="geometry" />
        </mxCell>
        <mxCell id="BahSj1_r1cL9ZHhUsxGS-69" value="" style="endArrow=block;startArrow=block;endFill=1;startFill=1;html=1;rounded=0;entryX=-0.004;entryY=0.364;entryDx=0;entryDy=0;entryPerimeter=0;exitX=0.25;exitY=1;exitDx=0;exitDy=0;" edge="1" parent="1" source="BahSj1_r1cL9ZHhUsxGS-6" target="BahSj1_r1cL9ZHhUsxGS-45">
          <mxGeometry width="160" relative="1" as="geometry">
            <mxPoint x="98" y="557" as="sourcePoint" />
            <mxPoint x="258" y="557" as="targetPoint" />
            <Array as="points">
              <mxPoint x="146" y="618" />
            </Array>
          </mxGeometry>
        </mxCell>
        <mxCell id="BahSj1_r1cL9ZHhUsxGS-70" value="&lt;font style=&quot;font-size: 8px;&quot;&gt;1&lt;/font&gt;" style="text;html=1;align=center;verticalAlign=middle;resizable=0;points=[];autosize=1;strokeColor=none;fillColor=none;" vertex="1" parent="1">
          <mxGeometry x="148" y="533" width="22" height="26" as="geometry" />
        </mxCell>
        <mxCell id="BahSj1_r1cL9ZHhUsxGS-71" value="&lt;font style=&quot;font-size: 8px;&quot;&gt;0..*&lt;/font&gt;" style="text;html=1;align=center;verticalAlign=middle;resizable=0;points=[];autosize=1;strokeColor=none;fillColor=none;" vertex="1" parent="1">
          <mxGeometry x="197" y="592" width="30" height="26" as="geometry" />
        </mxCell>
        <mxCell id="BahSj1_r1cL9ZHhUsxGS-77" value="" style="endArrow=block;startArrow=block;endFill=1;startFill=1;html=1;rounded=0;exitX=0.488;exitY=1.005;exitDx=0;exitDy=0;exitPerimeter=0;entryX=0.447;entryY=0.004;entryDx=0;entryDy=0;entryPerimeter=0;" edge="1" parent="1" source="BahSj1_r1cL9ZHhUsxGS-51" target="BahSj1_r1cL9ZHhUsxGS-73">
          <mxGeometry width="160" relative="1" as="geometry">
            <mxPoint x="756" y="928" as="sourcePoint" />
            <mxPoint x="916" y="928" as="targetPoint" />
          </mxGeometry>
        </mxCell>
        <mxCell id="BahSj1_r1cL9ZHhUsxGS-78" value="&lt;font style=&quot;font-size: 8px;&quot;&gt;0..*&lt;/font&gt;" style="text;html=1;align=center;verticalAlign=middle;resizable=0;points=[];autosize=1;strokeColor=none;fillColor=none;" vertex="1" parent="1">
          <mxGeometry x="812" y="947" width="30" height="26" as="geometry" />
        </mxCell>
        <mxCell id="BahSj1_r1cL9ZHhUsxGS-79" value="&lt;font style=&quot;font-size: 8px;&quot;&gt;1&lt;/font&gt;" style="text;html=1;align=center;verticalAlign=middle;resizable=0;points=[];autosize=1;strokeColor=none;fillColor=none;" vertex="1" parent="1">
          <mxGeometry x="812" y="905" width="22" height="26" as="geometry" />
        </mxCell>
        <mxCell id="BahSj1_r1cL9ZHhUsxGS-80" value="" style="endArrow=block;endFill=1;html=1;edgeStyle=orthogonalEdgeStyle;align=left;verticalAlign=top;rounded=0;exitX=0;exitY=0.5;exitDx=0;exitDy=0;entryX=0.025;entryY=1.101;entryDx=0;entryDy=0;entryPerimeter=0;" edge="1" parent="1" source="BahSj1_r1cL9ZHhUsxGS-74" target="BahSj1_r1cL9ZHhUsxGS-9">
          <mxGeometry x="-1" relative="1" as="geometry">
            <mxPoint x="335" y="1038" as="sourcePoint" />
            <mxPoint x="495" y="1038" as="targetPoint" />
            <Array as="points">
              <mxPoint x="109" y="1012" />
            </Array>
          </mxGeometry>
        </mxCell>
        <mxCell id="BahSj1_r1cL9ZHhUsxGS-82" value="&lt;font style=&quot;font-size: 8px;&quot;&gt;1&lt;/font&gt;" style="text;html=1;align=center;verticalAlign=middle;resizable=0;points=[];autosize=1;strokeColor=none;fillColor=none;" vertex="1" parent="1">
          <mxGeometry x="105" y="534" width="22" height="26" as="geometry" />
        </mxCell>
        <mxCell id="BahSj1_r1cL9ZHhUsxGS-83" value="&lt;div style=&quot;font-size: 8px;&quot;&gt;&lt;span style=&quot;font-weight: normal;&quot;&gt;&lt;font style=&quot;font-size: 8px;&quot;&gt;&amp;lt;&amp;lt;abstract&amp;gt;&amp;gt;&lt;/font&gt;&lt;/span&gt;&lt;/div&gt;&lt;font style=&quot;font-size: 8px;&quot;&gt;Tree&lt;/font&gt;" style="swimlane;fontStyle=1;align=center;verticalAlign=top;childLayout=stackLayout;horizontal=1;startSize=37;horizontalStack=0;resizeParent=1;resizeParentMax=0;resizeLast=0;collapsible=1;marginBottom=0;whiteSpace=wrap;html=1;fillColor=#dae8fc;strokeColor=default;" vertex="1" parent="1">
          <mxGeometry x="1102" y="559" width="260" height="258" as="geometry" />
        </mxCell>
        <mxCell id="BahSj1_r1cL9ZHhUsxGS-84" value="&lt;p style=&quot;font-size: 8px;&quot;&gt;&lt;font style=&quot;font-size: 8px;&quot;&gt;- _idTree: String&lt;/font&gt;&lt;/p&gt;&lt;p style=&quot;font-size: 8px;&quot;&gt;&lt;font style=&quot;font-size: 8px;&quot;&gt;- &lt;u&gt;_existingIds&lt;/u&gt;: List&amp;lt;String&amp;gt;&lt;/font&gt;&lt;/p&gt;&lt;p style=&quot;font-size: 8px;&quot;&gt;&lt;font style=&quot;font-size: 8px;&quot;&gt;- _name: String&lt;/font&gt;&lt;/p&gt;&lt;p style=&quot;font-size: 8px;&quot;&gt;&lt;font style=&quot;font-size: 8px;&quot;&gt;- _age: int&lt;/font&gt;&lt;/p&gt;&lt;p style=&quot;font-size: 8px;&quot;&gt;&lt;font style=&quot;font-size: 8px;&quot;&gt;- _baseCleaningDifficulty: int&lt;/font&gt;&lt;/p&gt;&lt;p style=&quot;font-size: 8px;&quot;&gt;&lt;font style=&quot;font-size: 8px;&quot;&gt;- _seasonAtCreation: Season&lt;/font&gt;&lt;/p&gt;" style="text;strokeColor=default;fillColor=#dae8fc;align=left;verticalAlign=top;spacingLeft=4;spacingRight=4;overflow=hidden;rotatable=0;points=[[0,0.5],[1,0.5]];portConstraint=eastwest;whiteSpace=wrap;html=1;" vertex="1" parent="BahSj1_r1cL9ZHhUsxGS-83">
          <mxGeometry y="37" width="260" height="118" as="geometry" />
        </mxCell>
        <mxCell id="BahSj1_r1cL9ZHhUsxGS-86" value="&lt;p style=&quot;font-size: 8px;&quot;&gt;&lt;font style=&quot;font-size: 8px;&quot;&gt;+ calculateCleaningEffort: float&lt;/font&gt;&lt;/p&gt;&lt;p style=&quot;font-size: 8px;&quot;&gt;&lt;font style=&quot;font-size: 8px;&quot;&gt;# &amp;lt;&amp;lt;abstract&amp;gt;&amp;gt; seasonalEffort(currentSeason: Season): int&lt;/font&gt;&lt;/p&gt;&lt;p style=&quot;font-size: 8px;&quot;&gt;&lt;font style=&quot;font-size: 8px;&quot;&gt;# equalsSeasonAtCreation(season: Season): boolean&lt;/font&gt;&lt;/p&gt;&lt;p style=&quot;font-size: 8px;&quot;&gt;&lt;font style=&quot;font-size: 8px;&quot;&gt;+ &amp;lt;&amp;lt;abstract&amp;gt;&amp;gt; toString(currentSeason: Season): String&lt;/font&gt;&lt;/p&gt;&lt;p style=&quot;font-size: 8px;&quot;&gt;&lt;font style=&quot;font-size: 8px;&quot;&gt;# &amp;lt;&amp;lt;abstract&amp;gt;&amp;gt;getBioCycle(currentSeason: Season): Leaf&lt;/font&gt;&lt;/p&gt;" style="text;strokeColor=default;fillColor=#dae8fc;align=left;verticalAlign=top;spacingLeft=4;spacingRight=4;overflow=hidden;rotatable=0;points=[[0,0.5],[1,0.5]];portConstraint=eastwest;whiteSpace=wrap;html=1;" vertex="1" parent="BahSj1_r1cL9ZHhUsxGS-83">
          <mxGeometry y="155" width="260" height="103" as="geometry" />
        </mxCell>
        <mxCell id="BahSj1_r1cL9ZHhUsxGS-87" value="" style="endArrow=block;startArrow=block;endFill=1;startFill=1;html=1;rounded=0;exitX=1;exitY=0.5;exitDx=0;exitDy=0;entryX=-0.001;entryY=0.281;entryDx=0;entryDy=0;entryPerimeter=0;" edge="1" parent="1" source="BahSj1_r1cL9ZHhUsxGS-49" target="BahSj1_r1cL9ZHhUsxGS-84">
          <mxGeometry width="160" relative="1" as="geometry">
            <mxPoint x="964" y="623" as="sourcePoint" />
            <mxPoint x="1124" y="623" as="targetPoint" />
          </mxGeometry>
        </mxCell>
        <mxCell id="BahSj1_r1cL9ZHhUsxGS-88" value="&lt;font style=&quot;font-size: 8px;&quot;&gt;1&lt;/font&gt;" style="text;html=1;align=center;verticalAlign=middle;resizable=0;points=[];autosize=1;strokeColor=none;fillColor=none;" vertex="1" parent="1">
          <mxGeometry x="1005" y="604" width="22" height="26" as="geometry" />
        </mxCell>
        <mxCell id="BahSj1_r1cL9ZHhUsxGS-89" value="&lt;font style=&quot;font-size: 8px;&quot;&gt;0..*&lt;/font&gt;" style="text;html=1;align=center;verticalAlign=middle;resizable=0;points=[];autosize=1;strokeColor=none;fillColor=none;" vertex="1" parent="1">
          <mxGeometry x="1074" y="604" width="30" height="26" as="geometry" />
        </mxCell>
        <mxCell id="BahSj1_r1cL9ZHhUsxGS-98" value="" style="endArrow=block;endSize=16;endFill=0;html=1;rounded=0;entryX=0.287;entryY=1.006;entryDx=0;entryDy=0;entryPerimeter=0;exitX=0.5;exitY=0;exitDx=0;exitDy=0;" edge="1" parent="1" source="BahSj1_r1cL9ZHhUsxGS-94" target="BahSj1_r1cL9ZHhUsxGS-86">
          <mxGeometry width="160" relative="1" as="geometry">
            <mxPoint x="1149" y="863" as="sourcePoint" />
            <mxPoint x="1309" y="863" as="targetPoint" />
          </mxGeometry>
        </mxCell>
        <mxCell id="BahSj1_r1cL9ZHhUsxGS-99" value="" style="endArrow=block;endSize=16;endFill=0;html=1;rounded=0;entryX=0.662;entryY=0.994;entryDx=0;entryDy=0;entryPerimeter=0;exitX=0.5;exitY=0;exitDx=0;exitDy=0;" edge="1" parent="1" source="BahSj1_r1cL9ZHhUsxGS-90" target="BahSj1_r1cL9ZHhUsxGS-86">
          <mxGeometry width="160" relative="1" as="geometry">
            <mxPoint x="1190" y="863" as="sourcePoint" />
            <mxPoint x="1350" y="863" as="targetPoint" />
          </mxGeometry>
        </mxCell>
        <mxCell id="BahSj1_r1cL9ZHhUsxGS-100" value="&lt;font style=&quot;font-size: 8px;&quot;&gt;&amp;lt;&amp;lt;enumeration&amp;gt;&amp;gt;&lt;/font&gt;&lt;div style=&quot;font-size: 8px;&quot;&gt;&lt;b&gt;&lt;font style=&quot;font-size: 8px;&quot;&gt;Season&lt;/font&gt;&lt;/b&gt;&lt;/div&gt;" style="swimlane;fontStyle=0;childLayout=stackLayout;horizontal=1;startSize=26;fillColor=#dae8fc;horizontalStack=0;resizeParent=1;resizeParentMax=0;resizeLast=0;collapsible=1;marginBottom=0;whiteSpace=wrap;html=1;strokeColor=default;" vertex="1" parent="1">
          <mxGeometry x="1473" y="559" width="116" height="106" as="geometry" />
        </mxCell>
        <mxCell id="BahSj1_r1cL9ZHhUsxGS-103" value="&lt;p style=&quot;font-size: 8px;&quot;&gt;&lt;font style=&quot;font-size: 8px;&quot;&gt;SPRING = 0&lt;/font&gt;&lt;/p&gt;&lt;p style=&quot;font-size: 8px;&quot;&gt;&lt;font style=&quot;font-size: 8px;&quot;&gt;SUMMER = 1&lt;/font&gt;&lt;/p&gt;&lt;p style=&quot;font-size: 8px;&quot;&gt;&lt;font style=&quot;font-size: 8px;&quot;&gt;FALL = 2&lt;/font&gt;&lt;/p&gt;&lt;p style=&quot;font-size: 8px;&quot;&gt;&lt;font style=&quot;font-size: 8px;&quot;&gt;WINTER = 3&lt;/font&gt;&lt;/p&gt;" style="text;strokeColor=default;fillColor=#dae8fc;align=left;verticalAlign=top;spacingLeft=4;spacingRight=4;overflow=hidden;rotatable=0;points=[[0,0.5],[1,0.5]];portConstraint=eastwest;whiteSpace=wrap;html=1;" vertex="1" parent="BahSj1_r1cL9ZHhUsxGS-100">
          <mxGeometry y="26" width="116" height="80" as="geometry" />
        </mxCell>
        <mxCell id="BahSj1_r1cL9ZHhUsxGS-104" value="&lt;font style=&quot;font-size: 8px;&quot;&gt;&amp;lt;&amp;lt;enumeration&amp;gt;&amp;gt;&lt;/font&gt;&lt;div style=&quot;font-size: 8px;&quot;&gt;&lt;b&gt;&lt;font style=&quot;font-size: 8px;&quot;&gt;Leaf&lt;/font&gt;&lt;/b&gt;&lt;/div&gt;" style="swimlane;fontStyle=0;childLayout=stackLayout;horizontal=1;startSize=26;fillColor=#dae8fc;horizontalStack=0;resizeParent=1;resizeParentMax=0;resizeLast=0;collapsible=1;marginBottom=0;whiteSpace=wrap;html=1;strokeColor=default;" vertex="1" parent="1">
          <mxGeometry x="1458" y="681" width="146" height="121" as="geometry" />
        </mxCell>
        <mxCell id="BahSj1_r1cL9ZHhUsxGS-105" value="&lt;p style=&quot;font-size: 8px;&quot;&gt;&lt;font style=&quot;font-size: 8px;&quot;&gt;NOLEAFS = SEMFOLHAS&lt;/font&gt;&lt;/p&gt;&lt;p style=&quot;font-size: 8px;&quot;&gt;&lt;font style=&quot;font-size: 8px;&quot;&gt;LOSINGLEAFS = LARGARFOLHAS&lt;/font&gt;&lt;/p&gt;&lt;p style=&quot;font-size: 8px;&quot;&gt;&lt;font style=&quot;font-size: 8px;&quot;&gt;CREATELEAFS = GERARFOLHAS&lt;/font&gt;&lt;/p&gt;&lt;p style=&quot;font-size: 8px;&quot;&gt;&lt;font style=&quot;font-size: 8px;&quot;&gt;WITHLEAFS = COMFOLHAS&lt;/font&gt;&lt;/p&gt;" style="text;strokeColor=default;fillColor=#dae8fc;align=left;verticalAlign=top;spacingLeft=4;spacingRight=4;overflow=hidden;rotatable=0;points=[[0,0.5],[1,0.5]];portConstraint=eastwest;whiteSpace=wrap;html=1;" vertex="1" parent="BahSj1_r1cL9ZHhUsxGS-104">
          <mxGeometry y="26" width="146" height="95" as="geometry" />
        </mxCell>
        <mxCell id="BahSj1_r1cL9ZHhUsxGS-106" value="&lt;span style=&quot;font-weight: normal; font-size: 8px;&quot;&gt;&lt;font style=&quot;font-size: 8px;&quot;&gt;&amp;lt;&amp;lt;enumeration&amp;gt;&amp;gt;&lt;/font&gt;&lt;/span&gt;&lt;div style=&quot;font-size: 8px;&quot;&gt;&lt;font style=&quot;font-size: 8px;&quot;&gt;Influence&lt;/font&gt;&lt;/div&gt;" style="swimlane;fontStyle=1;align=center;verticalAlign=top;childLayout=stackLayout;horizontal=1;startSize=46;horizontalStack=0;resizeParent=1;resizeParentMax=0;resizeLast=0;collapsible=1;marginBottom=0;whiteSpace=wrap;html=1;fillColor=#dae8fc;strokeColor=default;" vertex="1" parent="1">
          <mxGeometry x="1442.5" y="831" width="177" height="134" as="geometry" />
        </mxCell>
        <mxCell id="BahSj1_r1cL9ZHhUsxGS-107" value="&lt;p style=&quot;font-size: 8px;&quot;&gt;&lt;font style=&quot;font-size: 8px;&quot;&gt;POS = +20&lt;/font&gt;&lt;/p&gt;&lt;p style=&quot;font-size: 8px;&quot;&gt;&lt;font style=&quot;font-size: 8px;&quot;&gt;NEU = 0&lt;/font&gt;&lt;/p&gt;&lt;p style=&quot;font-size: 8px;&quot;&gt;&lt;font style=&quot;font-size: 8px;&quot;&gt;NEG = -20&lt;/font&gt;&lt;/p&gt;" style="text;strokeColor=default;fillColor=#dae8fc;align=left;verticalAlign=top;spacingLeft=4;spacingRight=4;overflow=hidden;rotatable=0;points=[[0,0.5],[1,0.5]];portConstraint=eastwest;whiteSpace=wrap;html=1;" vertex="1" parent="BahSj1_r1cL9ZHhUsxGS-106">
          <mxGeometry y="46" width="177" height="62" as="geometry" />
        </mxCell>
        <mxCell id="BahSj1_r1cL9ZHhUsxGS-109" value="&lt;font style=&quot;font-size: 8px;&quot;&gt;+ &lt;u&gt;determineAdequacy&lt;/u&gt;(influence: Influence): int&lt;/font&gt;" style="text;strokeColor=default;fillColor=#dae8fc;align=left;verticalAlign=top;spacingLeft=4;spacingRight=4;overflow=hidden;rotatable=0;points=[[0,0.5],[1,0.5]];portConstraint=eastwest;whiteSpace=wrap;html=1;" vertex="1" parent="BahSj1_r1cL9ZHhUsxGS-106">
          <mxGeometry y="108" width="177" height="26" as="geometry" />
        </mxCell>
        <mxCell id="BahSj1_r1cL9ZHhUsxGS-110" value="&lt;font style=&quot;font-size: 8px;&quot;&gt;Hotel&lt;/font&gt;" style="swimlane;fontStyle=1;align=center;verticalAlign=top;childLayout=stackLayout;horizontal=1;startSize=26;horizontalStack=0;resizeParent=1;resizeParentMax=0;resizeLast=0;collapsible=1;marginBottom=0;whiteSpace=wrap;html=1;fillColor=#dae8fc;strokeColor=default;" vertex="1" parent="1">
          <mxGeometry x="910" y="60" width="328" height="399" as="geometry" />
        </mxCell>
        <mxCell id="BahSj1_r1cL9ZHhUsxGS-111" value="&lt;font style=&quot;font-size: 8px;&quot;&gt;-_currentSeason: Season&lt;/font&gt;" style="text;strokeColor=default;fillColor=#dae8fc;align=left;verticalAlign=top;spacingLeft=4;spacingRight=4;overflow=hidden;rotatable=0;points=[[0,0.5],[1,0.5]];portConstraint=eastwest;whiteSpace=wrap;html=1;" vertex="1" parent="BahSj1_r1cL9ZHhUsxGS-110">
          <mxGeometry y="26" width="328" height="26" as="geometry" />
        </mxCell>
        <mxCell id="BahSj1_r1cL9ZHhUsxGS-113" value="&lt;p style=&quot;font-size: 8px;&quot;&gt;&lt;font style=&quot;font-size: 8px;&quot;&gt;+ nextSeason(): void&lt;/font&gt;&lt;/p&gt;&lt;p style=&quot;font-size: 8px;&quot;&gt;&lt;font style=&quot;font-size: 8px;&quot;&gt;+ calculateGlobalSatisfaction(): int&lt;/font&gt;&lt;/p&gt;&lt;p style=&quot;font-size: 8px;&quot;&gt;&lt;font style=&quot;font-size: 8px;&quot;&gt;+ listAnimals(): String&lt;/font&gt;&lt;/p&gt;&lt;p style=&quot;font-size: 8px;&quot;&gt;&lt;font style=&quot;font-size: 8px;&quot;&gt;+ registerNewAnimal(idAnimal: int, name: String, idSpecies: int, idHabitat: String): void&lt;/font&gt;&lt;/p&gt;&lt;p style=&quot;font-size: 8px;&quot;&gt;&lt;font style=&quot;font-size: 8px;&quot;&gt;+ identifyAnimal(idAnimal: String): Animal&lt;/font&gt;&lt;/p&gt;&lt;p style=&quot;font-size: 8px;&quot;&gt;&lt;font style=&quot;font-size: 8px;&quot;&gt;+ listEmployees(): String&lt;/font&gt;&lt;/p&gt;&lt;p style=&quot;font-size: 8px;&quot;&gt;&lt;font style=&quot;font-size: 8px;&quot;&gt;+ registerNewEmployee(idEmployee: String, nome: String, type: String): void&lt;/font&gt;&lt;/p&gt;&lt;p style=&quot;font-size: 8px;&quot;&gt;&lt;font style=&quot;font-size: 8px;&quot;&gt;+ addResponsibility(employee: Employee, idResponsibility: String): void&lt;/font&gt;&lt;/p&gt;&lt;p style=&quot;font-size: 8px;&quot;&gt;&lt;font style=&quot;font-size: 8px;&quot;&gt;+ identifySpecies(idSpecies: String): Species&lt;/font&gt;&lt;/p&gt;&lt;p style=&quot;font-size: 8px;&quot;&gt;&lt;font style=&quot;font-size: 8px;&quot;&gt;+ listHabitats(currentSeason: Season): String&lt;/font&gt;&lt;/p&gt;&lt;p style=&quot;font-size: 8px;&quot;&gt;&lt;font style=&quot;font-size: 8px;&quot;&gt;+ identifyHabitat(idHabitat: String): Habitat&lt;/font&gt;&lt;/p&gt;&lt;p style=&quot;font-size: 8px;&quot;&gt;&lt;font style=&quot;font-size: 8px;&quot;&gt;+ listVaccines: String&lt;/font&gt;&lt;/p&gt;&lt;p style=&quot;font-size: 8px;&quot;&gt;&lt;font style=&quot;font-size: 8px;&quot;&gt;+ identifyVet(idVet: String): Veterinary&lt;/font&gt;&lt;/p&gt;&lt;p style=&quot;font-size: 8px;&quot;&gt;&lt;font style=&quot;font-size: 8px;&quot;&gt;+ identifyVaccine(idVaccine: String): Vaccine&lt;/font&gt;&lt;/p&gt;&lt;p style=&quot;font-size: 8px;&quot;&gt;&lt;font style=&quot;font-size: 8px;&quot;&gt;+ listAnimalVaccinationHistory(idAnimal: String): String&lt;/font&gt;&lt;/p&gt;&lt;p style=&quot;font-size: 8px;&quot;&gt;&lt;font style=&quot;font-size: 8px;&quot;&gt;+ listVetVaccinationRecords(vet: Vet): String&lt;/font&gt;&lt;/p&gt;&lt;p style=&quot;font-size: 8px;&quot;&gt;&lt;font style=&quot;font-size: 8px;&quot;&gt;+ listErroneousVaccinations(): String&lt;/font&gt;&lt;/p&gt;&lt;p style=&quot;font-size: 8px;&quot;&gt;&lt;font style=&quot;font-size: 8px;&quot;&gt;+ addVaccinationRecord(record: VaccinationRecord): void&lt;/font&gt;&lt;/p&gt;" style="text;strokeColor=default;fillColor=#dae8fc;align=left;verticalAlign=top;spacingLeft=4;spacingRight=4;overflow=hidden;rotatable=0;points=[[0,0.5],[1,0.5]];portConstraint=eastwest;whiteSpace=wrap;html=1;" vertex="1" parent="BahSj1_r1cL9ZHhUsxGS-110">
          <mxGeometry y="52" width="328" height="347" as="geometry" />
        </mxCell>
        <mxCell id="BahSj1_r1cL9ZHhUsxGS-118" value="" style="endArrow=block;endFill=1;html=1;edgeStyle=orthogonalEdgeStyle;align=left;verticalAlign=top;rounded=0;entryX=1;entryY=0.5;entryDx=0;entryDy=0;exitX=0;exitY=0.5;exitDx=0;exitDy=0;" edge="1" parent="1" source="BahSj1_r1cL9ZHhUsxGS-117" target="BahSj1_r1cL9ZHhUsxGS-110">
          <mxGeometry x="-1" relative="1" as="geometry">
            <mxPoint x="1354" y="263" as="sourcePoint" />
            <mxPoint x="1514" y="263" as="targetPoint" />
          </mxGeometry>
        </mxCell>
        <mxCell id="BahSj1_r1cL9ZHhUsxGS-120" value="&lt;font style=&quot;font-size: 8px;&quot;&gt;0..*&lt;/font&gt;" style="text;html=1;align=center;verticalAlign=middle;resizable=0;points=[];autosize=1;strokeColor=none;fillColor=none;" vertex="1" parent="1">
          <mxGeometry x="1238" y="239" width="30" height="26" as="geometry" />
        </mxCell>
        <mxCell id="BahSj1_r1cL9ZHhUsxGS-121" value="" style="endArrow=block;endFill=1;html=1;edgeStyle=orthogonalEdgeStyle;align=left;verticalAlign=top;rounded=0;exitX=0.416;exitY=1.004;exitDx=0;exitDy=0;exitPerimeter=0;entryX=0.615;entryY=-0.001;entryDx=0;entryDy=0;entryPerimeter=0;" edge="1" parent="1" source="BahSj1_r1cL9ZHhUsxGS-113" target="BahSj1_r1cL9ZHhUsxGS-48">
          <mxGeometry x="-1" relative="1" as="geometry">
            <mxPoint x="887" y="524" as="sourcePoint" />
            <mxPoint x="1047" y="524" as="targetPoint" />
            <Array as="points">
              <mxPoint x="1046" y="515" />
              <mxPoint x="864" y="515" />
            </Array>
          </mxGeometry>
        </mxCell>
        <mxCell id="BahSj1_r1cL9ZHhUsxGS-123" value="&lt;font style=&quot;font-size: 8px;&quot;&gt;0..*&lt;/font&gt;" style="text;html=1;align=center;verticalAlign=middle;resizable=0;points=[];autosize=1;strokeColor=none;fillColor=none;" vertex="1" parent="1">
          <mxGeometry x="837" y="537" width="30" height="26" as="geometry" />
        </mxCell>
        <mxCell id="BahSj1_r1cL9ZHhUsxGS-124" value="" style="endArrow=block;endFill=1;html=1;edgeStyle=orthogonalEdgeStyle;align=left;verticalAlign=top;rounded=0;entryX=0.994;entryY=0.21;entryDx=0;entryDy=0;entryPerimeter=0;exitX=-0.004;exitY=0.135;exitDx=0;exitDy=0;exitPerimeter=0;" edge="1" parent="1" source="BahSj1_r1cL9ZHhUsxGS-113" target="BahSj1_r1cL9ZHhUsxGS-37">
          <mxGeometry x="-1" relative="1" as="geometry">
            <mxPoint x="772" y="319" as="sourcePoint" />
            <mxPoint x="932" y="319" as="targetPoint" />
          </mxGeometry>
        </mxCell>
        <mxCell id="BahSj1_r1cL9ZHhUsxGS-126" value="&lt;font style=&quot;font-size: 8px;&quot;&gt;0..*&lt;/font&gt;" style="text;html=1;align=center;verticalAlign=middle;resizable=0;points=[];autosize=1;strokeColor=none;fillColor=none;" vertex="1" parent="1">
          <mxGeometry x="790" y="143" width="30" height="26" as="geometry" />
        </mxCell>
        <mxCell id="BahSj1_r1cL9ZHhUsxGS-127" value="" style="endArrow=block;endFill=1;html=1;edgeStyle=orthogonalEdgeStyle;align=left;verticalAlign=top;rounded=0;exitX=0.25;exitY=0;exitDx=0;exitDy=0;entryX=0.454;entryY=-0.001;entryDx=0;entryDy=0;entryPerimeter=0;" edge="1" parent="1" source="BahSj1_r1cL9ZHhUsxGS-110" target="BahSj1_r1cL9ZHhUsxGS-1">
          <mxGeometry x="-1" relative="1" as="geometry">
            <mxPoint x="839" y="50" as="sourcePoint" />
            <mxPoint x="126" y="36" as="targetPoint" />
            <Array as="points">
              <mxPoint x="992" y="36" />
              <mxPoint x="126" y="36" />
            </Array>
          </mxGeometry>
        </mxCell>
        <mxCell id="BahSj1_r1cL9ZHhUsxGS-129" value="&lt;font style=&quot;font-size: 8px;&quot;&gt;0..*&lt;/font&gt;" style="text;html=1;align=center;verticalAlign=middle;resizable=0;points=[];autosize=1;strokeColor=none;fillColor=none;" vertex="1" parent="1">
          <mxGeometry x="126" y="64" width="30" height="26" as="geometry" />
        </mxCell>
        <mxCell id="BahSj1_r1cL9ZHhUsxGS-130" value="" style="endArrow=block;endFill=1;html=1;edgeStyle=orthogonalEdgeStyle;align=left;verticalAlign=top;rounded=0;exitX=-0.011;exitY=0.044;exitDx=0;exitDy=0;exitPerimeter=0;entryX=0.326;entryY=0.008;entryDx=0;entryDy=0;entryPerimeter=0;" edge="1" parent="1" target="BahSj1_r1cL9ZHhUsxGS-13">
          <mxGeometry x="-1" relative="1" as="geometry">
            <mxPoint x="907.1919999999998" y="76.90800000000002" as="sourcePoint" />
            <mxPoint x="358" y="231" as="targetPoint" />
            <Array as="points">
              <mxPoint x="336" y="77" />
              <mxPoint x="336" y="249" />
            </Array>
            <mxPoint as="offset" />
          </mxGeometry>
        </mxCell>
        <mxCell id="BahSj1_r1cL9ZHhUsxGS-132" value="&lt;font style=&quot;font-size: 8px;&quot;&gt;0..*&lt;/font&gt;" style="text;html=1;align=center;verticalAlign=middle;resizable=0;points=[];autosize=1;strokeColor=none;fillColor=none;" vertex="1" parent="1">
          <mxGeometry x="331" y="232" width="30" height="26" as="geometry" />
        </mxCell>
        <mxCell id="BahSj1_r1cL9ZHhUsxGS-134" value="" style="group" vertex="1" connectable="0" parent="1">
          <mxGeometry x="699" y="973" width="262" height="78" as="geometry" />
        </mxCell>
        <mxCell id="BahSj1_r1cL9ZHhUsxGS-73" value="&lt;font style=&quot;font-size: 8px;&quot;&gt;HabitatInfluence&lt;/font&gt;" style="swimlane;fontStyle=1;align=center;verticalAlign=top;childLayout=stackLayout;horizontal=1;startSize=26;horizontalStack=0;resizeParent=1;resizeParentMax=0;resizeLast=0;collapsible=1;marginBottom=0;whiteSpace=wrap;html=1;fillColor=#dae8fc;strokeColor=default;" vertex="1" parent="BahSj1_r1cL9ZHhUsxGS-134">
          <mxGeometry width="262" height="52" as="geometry" />
        </mxCell>
        <mxCell id="BahSj1_r1cL9ZHhUsxGS-74" value="&lt;font style=&quot;font-size: 8px;&quot;&gt;- _influence: Influence&lt;/font&gt;" style="text;strokeColor=default;fillColor=#dae8fc;align=left;verticalAlign=top;spacingLeft=4;spacingRight=4;overflow=hidden;rotatable=0;points=[[0,0.5],[1,0.5]];portConstraint=eastwest;whiteSpace=wrap;html=1;" vertex="1" parent="BahSj1_r1cL9ZHhUsxGS-73">
          <mxGeometry y="26" width="262" height="26" as="geometry" />
        </mxCell>
        <mxCell id="BahSj1_r1cL9ZHhUsxGS-133" value="" style="text;strokeColor=default;fillColor=#dae8fc;align=left;verticalAlign=top;spacingLeft=4;spacingRight=4;overflow=hidden;rotatable=0;points=[[0,0.5],[1,0.5]];portConstraint=eastwest;whiteSpace=wrap;html=1;" vertex="1" parent="BahSj1_r1cL9ZHhUsxGS-134">
          <mxGeometry y="52" width="262" height="26" as="geometry" />
        </mxCell>
        <mxCell id="BahSj1_r1cL9ZHhUsxGS-137" value="" style="group" vertex="1" connectable="0" parent="1">
          <mxGeometry x="1051" y="894" width="175" height="170" as="geometry" />
        </mxCell>
        <mxCell id="BahSj1_r1cL9ZHhUsxGS-94" value="&lt;font style=&quot;font-size: 8px;&quot;&gt;Deciduous&lt;/font&gt;" style="swimlane;fontStyle=1;align=center;verticalAlign=top;childLayout=stackLayout;horizontal=1;startSize=26;horizontalStack=0;resizeParent=1;resizeParentMax=0;resizeLast=0;collapsible=1;marginBottom=0;whiteSpace=wrap;html=1;fillColor=#dae8fc;strokeColor=default;" vertex="1" parent="BahSj1_r1cL9ZHhUsxGS-137">
          <mxGeometry width="175" height="98" as="geometry" />
        </mxCell>
        <mxCell id="BahSj1_r1cL9ZHhUsxGS-135" value="&lt;p style=&quot;font-size: 8px;&quot;&gt;&lt;br&gt;&lt;/p&gt;" style="text;strokeColor=default;fillColor=#dae8fc;align=left;verticalAlign=top;spacingLeft=4;spacingRight=4;overflow=hidden;rotatable=0;points=[[0,0.5],[1,0.5]];portConstraint=eastwest;whiteSpace=wrap;html=1;" vertex="1" parent="BahSj1_r1cL9ZHhUsxGS-94">
          <mxGeometry y="26" width="175" height="72" as="geometry" />
        </mxCell>
        <mxCell id="BahSj1_r1cL9ZHhUsxGS-97" value="&lt;p style=&quot;font-size: 8px;&quot;&gt;&lt;font style=&quot;font-size: 8px;&quot;&gt;# seasonalEffort(currentSeason: Season): int&lt;/font&gt;&lt;/p&gt;&lt;p style=&quot;font-size: 8px;&quot;&gt;&lt;font style=&quot;font-size: 8px;&quot;&gt;# getBioCycle(currentSeason: Season): Leaf&lt;/font&gt;&lt;/p&gt;&lt;p style=&quot;font-size: 8px;&quot;&gt;&lt;font style=&quot;font-size: 8px;&quot;&gt;+ toString(currentSeason: Season): String&lt;/font&gt;&lt;/p&gt;" style="text;strokeColor=default;fillColor=#dae8fc;align=left;verticalAlign=top;spacingLeft=4;spacingRight=4;overflow=hidden;rotatable=1;points=[[0,0.5],[1,0.5]];portConstraint=eastwest;whiteSpace=wrap;html=1;movable=1;resizable=1;deletable=1;editable=1;locked=0;connectable=1;" vertex="1" parent="BahSj1_r1cL9ZHhUsxGS-137">
          <mxGeometry y="98" width="175" height="72" as="geometry" />
        </mxCell>
        <mxCell id="BahSj1_r1cL9ZHhUsxGS-138" value="" style="group" vertex="1" connectable="0" parent="1">
          <mxGeometry x="1238" y="894" width="182" height="170" as="geometry" />
        </mxCell>
        <mxCell id="BahSj1_r1cL9ZHhUsxGS-90" value="&lt;font style=&quot;font-size: 8px;&quot;&gt;Evergreen&lt;/font&gt;" style="swimlane;fontStyle=1;align=center;verticalAlign=top;childLayout=stackLayout;horizontal=1;startSize=26;horizontalStack=0;resizeParent=1;resizeParentMax=0;resizeLast=0;collapsible=1;marginBottom=0;whiteSpace=wrap;html=1;strokeColor=default;fillColor=#dae8fc;" vertex="1" parent="BahSj1_r1cL9ZHhUsxGS-138">
          <mxGeometry width="182" height="97" as="geometry" />
        </mxCell>
        <mxCell id="BahSj1_r1cL9ZHhUsxGS-93" value="&lt;p style=&quot;font-size: 8px;&quot;&gt;&lt;br&gt;&lt;/p&gt;" style="text;strokeColor=default;fillColor=#dae8fc;align=left;verticalAlign=top;spacingLeft=4;spacingRight=4;overflow=hidden;rotatable=0;points=[[0,0.5],[1,0.5]];portConstraint=eastwest;whiteSpace=wrap;html=1;" vertex="1" parent="BahSj1_r1cL9ZHhUsxGS-90">
          <mxGeometry y="26" width="182" height="71" as="geometry" />
        </mxCell>
        <mxCell id="BahSj1_r1cL9ZHhUsxGS-136" value="&lt;p style=&quot;font-size: 8px;&quot;&gt;&lt;font style=&quot;font-size: 8px;&quot;&gt;# seasonalEffort(currentSeason: Season): int&lt;/font&gt;&lt;/p&gt;&lt;p style=&quot;font-size: 8px;&quot;&gt;&lt;font style=&quot;font-size: 8px;&quot;&gt;# getBioCycle(currentSeason: Season): Leaf&lt;/font&gt;&lt;/p&gt;&lt;p style=&quot;font-size: 8px;&quot;&gt;&lt;font style=&quot;font-size: 8px;&quot;&gt;+ toString(currentSeason: Season): String&lt;/font&gt;&lt;/p&gt;" style="text;strokeColor=default;fillColor=#dae8fc;align=left;verticalAlign=top;spacingLeft=4;spacingRight=4;overflow=hidden;rotatable=0;points=[[0,0.5],[1,0.5]];portConstraint=eastwest;whiteSpace=wrap;html=1;" vertex="1" parent="BahSj1_r1cL9ZHhUsxGS-138">
          <mxGeometry y="98" width="182" height="72" as="geometry" />
        </mxCell>
        <mxCell id="BahSj1_r1cL9ZHhUsxGS-141" value="" style="group" vertex="1" connectable="0" parent="1">
          <mxGeometry x="1406" y="39" width="160" height="165" as="geometry" />
        </mxCell>
        <mxCell id="BahSj1_r1cL9ZHhUsxGS-114" value="&lt;font style=&quot;font-size: 8px;&quot;&gt;HotelManager&lt;/font&gt;" style="swimlane;fontStyle=1;align=center;verticalAlign=top;childLayout=stackLayout;horizontal=1;startSize=26;horizontalStack=0;resizeParent=1;resizeParentMax=0;resizeLast=0;collapsible=1;marginBottom=0;whiteSpace=wrap;html=1;fillColor=#dae8fc;strokeColor=default;" vertex="1" parent="BahSj1_r1cL9ZHhUsxGS-141">
          <mxGeometry width="160" height="76" as="geometry" />
        </mxCell>
        <mxCell id="BahSj1_r1cL9ZHhUsxGS-117" value="&lt;p style=&quot;font-size: 8px;&quot;&gt;&lt;br&gt;&lt;/p&gt;" style="text;strokeColor=default;fillColor=#dae8fc;align=left;verticalAlign=top;spacingLeft=4;spacingRight=4;overflow=hidden;rotatable=0;points=[[0,0.5],[1,0.5]];portConstraint=eastwest;whiteSpace=wrap;html=1;" vertex="1" parent="BahSj1_r1cL9ZHhUsxGS-114">
          <mxGeometry y="26" width="160" height="50" as="geometry" />
        </mxCell>
        <mxCell id="BahSj1_r1cL9ZHhUsxGS-139" value="&lt;p style=&quot;font-size: 8px;&quot;&gt;&lt;font style=&quot;font-size: 8px;&quot;&gt;+ save(): void&lt;/font&gt;&lt;/p&gt;&lt;p style=&quot;font-size: 8px;&quot;&gt;&lt;font style=&quot;font-size: 8px;&quot;&gt;+ saveAs(filename: String): void&lt;/font&gt;&lt;/p&gt;&lt;p style=&quot;font-size: 8px;&quot;&gt;&lt;font style=&quot;font-size: 8px;&quot;&gt;+ load(filename: String): void&lt;/font&gt;&lt;/p&gt;&lt;p style=&quot;font-size: 8px;&quot;&gt;&lt;font style=&quot;font-size: 8px;&quot;&gt;+ importFile(filename: String): void&lt;/font&gt;&lt;/p&gt;" style="text;strokeColor=default;fillColor=#dae8fc;align=left;verticalAlign=top;spacingLeft=4;spacingRight=4;overflow=hidden;rotatable=0;points=[[0,0.5],[1,0.5]];portConstraint=eastwest;whiteSpace=wrap;html=1;" vertex="1" parent="BahSj1_r1cL9ZHhUsxGS-141">
          <mxGeometry y="76" width="160" height="89" as="geometry" />
        </mxCell>
      </root>
    </mxGraphModel>
  </diagram>
</mxfile>
